<svg version="1.1" id="Layer_1" xmlns="http://www.w3.org/2000/svg" xmlns:xlink="http://www.w3.org/1999/xlink" x="0px" y="0px"
	 width="100%" viewBox="0 0 1888 2254" enable-background="new 0 0 1888 2254" xml:space="preserve">
<path fill="#e2b714" opacity="1.000000" stroke="none"
	d="
M2.000014,1700.000000
	C2.000000,1317.286621 2.000000,934.573364 2.737620,550.985840
	C5.027926,549.586975 6.736609,549.322937 8.110850,548.500244
	C64.851883,514.532898 121.442070,480.311737 178.314896,446.566895
	C226.012741,418.265930 274.082214,390.592041 321.901154,362.494141
	C364.312714,337.573547 406.559906,312.373230 448.963654,287.439331
	C497.097839,259.135895 545.377197,231.079178 593.497559,202.752289
	C639.049805,175.937164 684.468201,148.894821 729.976685,122.005127
	C734.102539,119.567245 738.456055,117.514580 744.349854,114.418327
	C743.086243,118.077965 742.732422,119.975754 741.831543,121.563004
	C737.567871,129.075516 733.084534,136.463104 728.807251,143.968079
	C711.036987,175.148621 693.322937,206.361206 675.568542,237.550858
	C660.937866,263.252991 646.213074,288.901855 631.675903,314.656647
	C627.528809,322.003937 622.653931,328.102356 614.994080,332.454529
	C581.179504,351.667297 547.576782,371.256927 514.028320,390.933411
	C464.997864,419.690308 416.082275,448.643066 367.112549,477.503571
	C315.282623,508.049805 263.434784,538.565674 211.626984,569.149292
	C204.383774,573.425171 197.324081,578.011780 189.048630,583.157776
	C265.873169,628.046265 341.219299,672.070984 416.218384,715.892883
	C413.282227,726.710510 363.429962,815.569214 356.795502,822.263245
	C280.503601,778.065247 204.090515,733.796997 126.520309,688.858459
	C125.618614,693.118530 124.405922,696.201965 124.401772,699.286987
	C124.369194,723.508972 124.583992,747.731262 124.690521,771.953552
	C124.778008,791.846375 124.909622,811.739441 124.862755,831.632080
	C124.801727,857.534729 124.423882,883.437195 124.476700,909.339233
	C124.532707,936.806335 125.154778,964.272949 125.129158,991.739441
	C125.095291,1028.037720 124.590820,1064.335327 124.445229,1100.633911
	C124.351402,1124.024414 124.570374,1147.415894 124.583611,1170.807007
	C124.588615,1179.653809 124.286682,1188.501343 124.340050,1197.347290
	C124.447113,1215.095947 124.724480,1232.843628 124.891022,1250.592041
	C125.109329,1273.858154 125.466606,1297.124756 125.430000,1320.390625
	C125.398819,1340.205444 124.805748,1360.018921 124.690933,1379.834229
	C124.672562,1383.004883 125.859039,1386.182495 126.488525,1389.356812
	C133.756821,1379.832886 138.962646,1370.231567 144.300842,1360.704468
	C165.905151,1322.147461 187.603622,1283.643311 209.167633,1245.063843
	C241.431305,1187.342041 273.645447,1129.592285 305.815002,1071.817993
	C329.582001,1029.134155 353.219391,986.378113 376.960205,943.679688
	C400.706207,900.972107 424.410309,858.240662 448.311890,815.620117
	C477.246460,764.024902 506.400177,712.552551 535.402710,660.995361
	C572.549988,594.959229 609.536560,528.832458 646.795532,462.859497
	C669.186340,423.213074 691.934448,383.768188 714.574951,344.263092
	C746.140930,289.184082 777.718811,234.111816 809.362793,179.077576
	C835.033569,134.431549 860.942688,89.921692 886.416809,45.164059
	C891.053162,37.018051 897.071777,31.010777 905.099060,26.487244
	C916.970947,19.797264 928.681519,12.818933 940.391602,5.847165
	C941.582520,5.138115 944.740601,4.618210 942.000000,2.000000
	C945.428162,2.000000 948.856384,2.000000 952.387451,2.407217
	C953.619690,3.938905 954.587708,5.319570 955.903381,6.148343
	C969.556030,14.748569 983.362976,23.108828 996.889771,31.900742
	C1000.328125,34.135555 1003.733582,37.188915 1005.781738,40.672970
	C1021.975098,68.219078 1037.851440,95.951736 1053.795410,123.644249
	C1071.197388,153.869263 1088.546875,184.124390 1105.955566,214.345413
	C1133.233032,261.698334 1160.623779,308.986237 1187.809937,356.391357
	C1209.922363,394.949127 1231.895142,433.587708 1253.765503,472.283295
	C1278.041260,515.234680 1302.107056,558.304871 1326.308228,601.298584
	C1350.526123,644.321838 1374.882568,687.267456 1399.014404,730.338806
	C1412.851440,755.035461 1426.236816,779.984802 1440.052002,804.693848
	C1457.569336,836.024048 1475.397949,867.180054 1492.938110,898.497620
	C1506.783569,923.218567 1520.326538,948.108765 1534.129028,972.853882
	C1552.097656,1005.067749 1570.191772,1037.211426 1588.228882,1069.386963
	C1604.655151,1098.689087 1621.078369,1127.992920 1637.501587,1157.296753
	C1659.385376,1196.344116 1681.384399,1235.327393 1703.115845,1274.459229
	C1722.136108,1308.709473 1740.812622,1343.150391 1759.758179,1377.442261
	C1762.179688,1381.825073 1764.113647,1386.821167 1769.244141,1389.764282
	C1771.463379,1372.684082 1770.676147,698.075623 1768.114136,689.799316
	C1690.657715,733.358826 1614.735229,779.015198 1536.890869,823.040833
	C1517.337402,787.622437 1497.966919,753.038879 1478.825317,717.114563
	C1555.318726,672.251526 1630.575195,628.114014 1706.602905,583.524170
	C1703.796265,581.547852 1701.793457,579.926147 1699.598877,578.628784
	C1690.159912,573.048889 1680.631470,567.620117 1671.195312,562.035583
	C1618.281372,530.720337 1565.422485,499.311890 1512.470459,468.061218
	C1468.096191,441.872925 1423.626221,415.846741 1379.186890,389.768799
	C1350.800659,373.111206 1322.565552,356.185425 1293.923950,339.978607
	C1279.181519,331.636597 1267.444580,321.756287 1259.457764,305.883728
	C1246.334717,279.803436 1230.564087,255.058411 1215.991211,229.703568
	C1200.752197,203.189743 1185.552979,176.652649 1170.451904,150.060120
	C1164.307373,139.239685 1158.467285,128.246399 1152.488647,117.331757
	C1152.966064,116.813614 1153.443481,116.295471 1153.921021,115.777321
	C1157.603882,117.723991 1161.372192,119.525932 1164.956909,121.639336
	C1208.176147,147.120026 1251.357666,172.664612 1294.570679,198.155945
	C1329.496460,218.758713 1364.446045,239.321487 1399.395386,259.884338
	C1442.651611,285.334564 1485.916748,310.769806 1529.181641,336.205170
	C1561.836182,355.402710 1594.467041,374.640778 1627.165039,393.763885
	C1647.250244,405.510529 1667.531982,416.922729 1687.565430,428.756042
	C1718.176758,446.837494 1748.651978,465.149231 1779.180786,483.370300
	C1805.444336,499.045685 1831.639771,514.836670 1857.993042,530.359741
	C1868.485107,536.540039 1879.320801,542.137329 1890.000000,548.000000
	C1890.000000,932.046631 1890.000000,1316.093262 1889.290649,1701.116577
	C1844.191772,1728.234375 1799.803955,1754.378296 1755.412354,1780.515747
	C1713.026855,1805.471924 1670.605713,1830.367676 1628.259033,1855.389282
	C1591.659668,1877.015015 1555.149780,1898.791870 1518.588379,1920.481445
	C1457.418579,1956.769897 1396.228638,1993.024292 1335.068237,2029.328369
	C1303.341309,2048.161133 1271.713257,2067.161133 1239.945801,2085.924805
	C1156.962524,2134.939453 1073.921143,2183.855469 990.920105,2232.839844
	C980.902405,2238.751953 970.914856,2244.724609 961.113159,2250.982178
	C959.717041,2251.873535 955.237610,2252.065186 958.000000,2256.000000
	C951.939575,2256.000000 945.879089,2256.000000 939.645752,2255.583496
	C937.190918,2253.339355 935.087463,2251.213135 932.600769,2249.729248
	C885.492188,2221.620361 838.378235,2193.520264 791.185059,2165.553711
	C713.393921,2119.455322 635.531372,2073.477295 557.725403,2027.403564
	C497.676422,1991.844727 437.707092,1956.151367 377.628632,1920.642578
	C334.139435,1894.938843 290.491516,1869.503662 246.984970,1843.829224
	C209.772339,1821.868774 172.665436,1799.729248 135.501938,1777.685425
	C104.633476,1759.375488 73.811539,1740.985840 42.845982,1722.841553
	C29.389473,1714.956665 15.624766,1707.597778 2.000014,1700.000000
M1022.948486,2073.446289
	C1023.653687,2072.915527 1024.358887,2072.384766 1025.020874,2072.034424
	C1025.020874,2072.034424 1024.840088,2071.992188 1026.172363,2071.410400
	C1026.842651,2070.720947 1027.512939,2070.031494 1029.142700,2068.475342
	C1066.047607,2046.683105 1102.971436,2024.922852 1139.848755,2003.083984
	C1156.130859,1993.441650 1156.079468,1993.369141 1156.097534,1974.616089
	C1156.161011,1908.324951 1156.273926,1842.033813 1156.289917,1775.742676
	C1156.332886,1598.759766 1156.333740,1421.776733 1156.362305,1244.793823
	C1156.362915,1240.697632 1156.493408,1236.601318 1156.563232,1232.505127
	C1159.986938,1234.687988 1161.704346,1237.039551 1163.059814,1239.583984
	C1169.616333,1251.892212 1176.028198,1264.277344 1182.579712,1276.588135
	C1195.854126,1301.532471 1209.219727,1326.428345 1222.485474,1351.377441
	C1240.278687,1384.841797 1257.836548,1418.433228 1275.906738,1451.747070
	C1280.015259,1459.321533 1281.992188,1466.763672 1281.981567,1475.380005
	C1281.805786,1618.366089 1281.839478,1761.352417 1281.848267,1904.338623
	C1281.848511,1908.132080 1282.096191,1911.925537 1282.270264,1916.917725
	C1287.708496,1914.086548 1291.864624,1912.159058 1295.790649,1909.842285
	C1334.727295,1886.867065 1373.586914,1863.761353 1412.546387,1840.825073
	C1451.784302,1817.724609 1491.136230,1794.817871 1530.391968,1771.747559
	C1580.236450,1742.454224 1630.042114,1713.094849 1679.833008,1683.710571
	C1682.782104,1681.970337 1685.452271,1679.757324 1689.569580,1676.826782
	C1675.682251,1670.562866 1663.624878,1665.122437 1651.565918,1659.685547
	C1594.339478,1633.883911 1537.113281,1608.081909 1479.885864,1582.282593
	C1442.331787,1565.352295 1404.846924,1548.264526 1367.144287,1531.671875
	C1361.448120,1529.164917 1360.077759,1526.005005 1360.151611,1520.354736
	C1360.413452,1500.360229 1359.896973,1480.351807 1360.369507,1460.365234
	C1360.626709,1449.487549 1359.589844,1439.302856 1353.898071,1429.725708
	C1350.339478,1423.737793 1347.530396,1417.287842 1344.606079,1410.943481
	C1339.814331,1400.547607 1335.202271,1390.068848 1330.514404,1379.625122
	C1330.960693,1379.112427 1331.406982,1378.599731 1331.853149,1378.086914
	C1341.213379,1381.927734 1350.703613,1385.482056 1359.910278,1389.661011
	C1392.276855,1404.352783 1424.521851,1419.312378 1456.857666,1434.072388
	C1513.073853,1459.732788 1569.316040,1485.335938 1625.562256,1510.930298
	C1647.337036,1520.838867 1669.098755,1530.780762 1691.004272,1540.393311
	C1694.522949,1541.937378 1698.062866,1545.524414 1702.749146,1543.124268
	C1696.720581,1524.362793 1020.088196,307.178650 1009.819397,297.664856
	C1009.819397,308.872742 1009.868835,319.271698 1009.809448,329.670074
	C1009.666260,354.751770 1009.500854,379.833435 1009.289490,404.914612
	C1009.125488,424.374756 1008.630005,443.835541 1008.732727,463.293640
	C1008.856384,486.706940 1009.286987,510.122894 1010.002625,533.524902
	C1010.137695,537.941895 1011.412659,542.749329 1013.543640,546.614624
	C1036.328491,587.944031 1059.256104,629.196350 1082.408691,670.321106
	C1121.054321,738.965332 1159.857788,807.520752 1198.664795,876.073975
	C1216.999756,908.463013 1235.596191,940.704041 1253.886230,973.118164
	C1266.789673,995.985718 1279.227539,1019.116150 1292.141479,1041.977783
	C1310.767822,1074.951904 1329.713623,1107.745605 1348.384033,1140.695068
	C1372.462769,1183.189209 1396.401489,1225.762695 1420.405273,1268.299316
	C1433.955933,1292.311646 1447.542725,1316.303833 1461.023926,1340.355103
	C1462.152466,1342.368530 1462.599609,1344.763916 1463.882935,1348.490845
	C1448.384766,1341.930786 1434.582520,1336.275024 1420.933228,1330.271362
	C1395.099487,1318.908203 1369.347046,1307.360474 1343.573486,1295.860840
	C1322.942261,1286.655640 1302.328979,1277.410522 1281.710205,1268.177368
	C1276.794922,1265.976440 1272.648560,1263.238403 1269.867920,1258.123901
	C1256.535522,1233.600342 1242.781494,1209.306519 1229.314575,1184.855591
	C1207.991089,1146.140381 1186.891724,1107.301270 1165.481445,1068.634155
	C1146.648315,1034.621338 1127.485962,1000.790894 1108.531006,966.845337
	C1093.798096,940.460938 1079.150879,914.028625 1064.483643,887.607544
	C1052.552124,866.114319 1040.713989,844.569031 1028.701416,823.121277
	C1023.226074,813.345276 1017.430298,803.748718 1011.779846,794.070801
	C1009.324707,801.381409 1008.389221,808.224915 1008.372131,815.070679
	C1008.247498,865.013672 1008.209473,914.957336 1008.349731,964.900208
	C1008.421570,990.485291 1009.131836,1016.068970 1009.153503,1041.653564
	C1009.171448,1062.878418 1008.511230,1084.103149 1008.342896,1105.329346
	C1008.280029,1113.258057 1008.977234,1121.191772 1008.950806,1129.121948
	C1008.865723,1154.596436 1008.379822,1180.071411 1008.490723,1205.544189
	C1008.564148,1222.421631 1009.771057,1239.294800 1009.815796,1256.171631
	C1009.943542,1304.355591 1009.743469,1352.540649 1009.658813,1400.725220
	C1009.613037,1426.790283 1009.501709,1452.855469 1009.490906,1478.920532
	C1009.482971,1498.042969 1009.798889,1517.167847 1009.577820,1536.286987
	C1009.413818,1550.471313 1008.619324,1564.648193 1007.809204,1580.849854
	C1007.739502,1612.026611 1007.616882,1643.203247 1007.627686,1674.380005
	C1007.631653,1685.980225 1007.947876,1697.580444 1008.523010,1709.679565
	C1008.656555,1710.153687 1008.522705,1710.533447 1007.838684,1712.837769
	C1007.928650,1720.946167 1008.018555,1729.054688 1008.514832,1737.666382
	C1008.649780,1738.143433 1008.517700,1738.528809 1007.824890,1740.847412
	C1007.763855,1790.028564 1007.655396,1839.209839 1007.656311,1888.390991
	C1007.657043,1930.260864 1007.783630,1972.130737 1007.714172,2015.871216
	C1007.698975,2034.067261 1007.624084,2052.263672 1007.721863,2070.459229
	C1007.740051,2073.847900 1008.451904,2077.232910 1009.031006,2082.239990
	C1012.437317,2079.918213 1014.214905,2078.706543 1015.893433,2077.922852
	C1015.893433,2077.922852 1015.465881,2077.822021 1016.520020,2077.458252
	C1017.037476,2076.939453 1017.554871,2076.420898 1018.040283,2076.057373
	C1018.040283,2076.057373 1017.885071,2076.026367 1019.117188,2075.871582
	C1020.076233,2075.129150 1021.035278,2074.386963 1021.981812,2073.920410
	C1021.981812,2073.920410 1021.706360,2073.906494 1022.948486,2073.446289
M535.357605,1441.131104
	C534.783813,1443.665649 533.715759,1446.199463 533.712524,1448.734741
	C533.679321,1474.825317 533.818359,1500.916138 533.613770,1528.276978
	C531.370850,1529.633545 529.231079,1531.212036 526.868347,1532.311157
	C509.995117,1540.160767 493.160187,1548.101196 476.155792,1555.658813
	C433.953217,1574.415649 391.611603,1592.860107 349.430328,1611.664429
	C311.790405,1628.444214 274.276245,1645.506348 236.738068,1662.513306
	C226.834885,1667.000122 217.048111,1671.743774 205.384048,1677.226807
	C340.855743,1757.247437 474.721436,1836.325317 608.632141,1915.326904
	C609.895142,1916.072021 611.758545,1915.799072 613.672485,1916.043579
	C613.873413,1913.961304 614.165283,1912.343018 614.166199,1910.724487
	C614.198242,1851.767334 614.176636,1792.810181 614.221985,1733.853027
	C614.249023,1698.622803 614.358521,1663.392456 614.462891,1628.162231
	C614.531433,1605.036987 614.780884,1581.911621 614.725586,1558.786865
	C614.655701,1529.542480 614.178284,1500.297729 614.329468,1471.055542
	C614.355957,1465.948730 615.699829,1460.391479 618.000854,1455.832520
	C628.188782,1435.647705 638.949585,1415.752197 649.500061,1395.750488
	C670.743591,1355.475952 691.988098,1315.201782 713.225830,1274.924194
	C719.734253,1262.580933 726.147766,1250.186890 732.778564,1237.909912
	C734.191711,1235.293457 735.241821,1231.800659 739.820557,1231.552124
	C739.820557,1485.704224 739.820557,1739.337280 739.820557,1993.497437
	C786.781433,2021.322876 833.648132,2049.106445 880.558411,2076.816162
	C881.854065,2077.581543 883.616516,2077.556641 885.621704,2078.002441
	C885.849426,2075.853516 886.165710,2074.263916 886.165527,2072.674072
	C886.120728,1647.023315 886.053955,1221.372559 885.963745,795.721741
	C885.963684,795.506714 885.633667,795.237183 885.397278,795.091064
	C885.120300,794.919861 884.776978,794.856201 883.683411,794.472717
	C877.172668,805.404785 870.267517,816.319397 864.026245,827.601257
	C841.830383,867.723450 820.029724,908.064636 797.764832,948.148071
	C766.155457,1005.054504 734.088074,1061.706787 702.557129,1118.656372
	C678.575500,1161.970459 654.988464,1205.505005 631.534363,1249.107544
	C625.800171,1259.767822 618.536072,1267.545654 606.740356,1271.843506
	C592.102905,1277.176636 578.056641,1284.134521 563.762817,1290.408447
	C522.693665,1308.434814 481.633850,1326.482422 440.547974,1344.470459
	C438.060730,1345.559448 435.377930,1346.201660 431.176971,1347.579590
	C433.566742,1342.896606 434.967010,1339.924194 436.562836,1337.060791
	C454.682678,1304.546143 472.698639,1271.972656 491.005066,1239.563232
	C518.958496,1190.074951 547.144958,1140.718262 575.182007,1091.276978
	C599.287598,1048.768555 623.364868,1006.243896 647.378845,963.683594
	C682.325928,901.746277 717.184937,839.759277 752.120361,777.815247
	C774.491638,738.148804 797.010803,698.565491 819.319824,658.864075
	C840.325073,621.482788 861.091003,583.967041 882.108582,546.592773
	C884.617004,542.132324 886.349365,537.820312 886.341858,532.562256
	C886.235657,458.230591 886.278015,383.898651 886.234070,309.566833
	C886.231995,306.090027 885.759216,302.613495 885.505676,299.136841
	C882.327576,300.792023 880.777832,302.724182 879.582092,304.854980
	C857.473816,344.252899 835.367737,383.652100 813.344116,423.097351
	C791.972534,461.374817 770.745361,499.732910 749.362244,538.003906
	C726.179565,579.495667 702.831848,620.895264 679.664246,662.395386
	C658.451965,700.392822 637.430054,738.496460 616.240234,776.506409
	C591.797058,820.352295 567.187744,864.105591 542.791260,907.977356
	C525.508057,939.057495 508.552368,970.319763 491.283447,1001.407959
	C463.216522,1051.934937 434.956879,1102.354980 406.885773,1152.879639
	C387.200714,1188.310547 367.690491,1223.838745 348.109100,1259.327393
	C328.692139,1294.518188 309.269867,1329.705933 289.874969,1364.908936
	C261.016541,1417.288574 232.115021,1469.644775 203.414581,1522.110840
	C199.715561,1528.872803 194.614960,1535.169189 193.372833,1545.037231
	C198.507019,1543.041016 202.474670,1541.726440 206.248672,1539.990845
	C221.633972,1532.915405 236.898285,1525.574951 252.320572,1518.582275
	C285.297546,1503.630005 318.403076,1488.960693 351.351105,1473.945312
	C413.599335,1445.576904 475.751831,1416.998413 538.004089,1388.638916
	C546.500244,1384.768311 555.340881,1381.653931 564.022034,1378.189453
	C556.287781,1400.152588 547.878906,1420.676392 535.357605,1441.131104
z"/>
<path fill="#AE916D" opacity="1.000000" stroke="none"
	d="
M1007.971680,1739.835083
	C1008.759705,1741.991577 1009.959534,1745.160278 1009.959167,1748.329102
	C1009.953125,1804.450562 1009.765503,1860.572021 1009.700073,1916.693481
	C1009.678101,1935.584961 1009.914185,1954.476440 1009.980530,1973.368164
	C1010.025940,1986.294922 1009.981689,1999.222046 1009.377197,2013.075806
	C1008.776855,2014.002686 1007.854614,2014.000610 1007.854614,2014.000610
	C1007.783630,1972.130737 1007.657043,1930.260864 1007.656311,1888.390991
	C1007.655396,1839.209839 1007.763855,1790.028564 1007.971680,1739.835083
z"/>
<path fill="#AE916D" opacity="1.000000" stroke="none"
	d="
M1007.957520,1579.839111
	C1008.720581,1581.340820 1009.865601,1583.852051 1009.870850,1586.365723
	C1009.953674,1625.849609 1009.893616,1665.333984 1009.836731,1704.818115
	C1009.835266,1705.797729 1009.494934,1706.776733 1008.717163,1708.468384
	C1007.947876,1697.580444 1007.631653,1685.980225 1007.627686,1674.380005
	C1007.616882,1643.203247 1007.739502,1612.026611 1007.957520,1579.839111
z"/>
<path fill="#B5966E" opacity="1.000000" stroke="none"
	d="
M535.933960,1440.478027
	C536.345825,1464.514526 536.214539,1489.204346 535.983032,1513.893066
	C535.946289,1517.810791 535.458374,1521.724243 534.544312,1526.323242
	C533.818359,1500.916138 533.679321,1474.825317 533.712524,1448.734741
	C533.715759,1446.199463 534.783813,1443.665649 535.933960,1440.478027
z"/>
<path fill="#B4946C" opacity="1.000000" stroke="none"
	d="
M1007.784424,2014.935913
	C1007.854614,2014.000610 1008.776855,2014.002686 1009.237976,2014.007690
	C1009.801514,2032.800171 1009.897644,2051.587646 1010.015625,2070.375000
	C1010.028076,2072.345947 1009.781677,2074.456787 1010.424500,2076.222900
	C1010.716797,2077.025879 1012.886902,2077.145508 1015.098877,2077.535156
	C1014.214905,2078.706543 1012.437317,2079.918213 1009.031006,2082.239990
	C1008.451904,2077.232910 1007.740051,2073.847900 1007.721863,2070.459229
	C1007.624084,2052.263672 1007.698975,2034.067261 1007.784424,2014.935913
z"/>
<path fill="#AE916D" opacity="1.000000" stroke="none"
	d="
M1007.980042,1711.828369
	C1011.718567,1718.962036 1009.604980,1727.324463 1008.591492,1736.394653
	C1008.018555,1729.054688 1007.928650,1720.946167 1007.980042,1711.828369
z"/>
<path fill="#B4946C" opacity="1.000000" stroke="none"
	d="
M1018.501099,2075.948975
	C1018.824524,2075.227295 1019.764038,2074.428223 1021.348938,2073.636963
	C1021.035278,2074.386963 1020.076233,2075.129150 1018.501099,2075.948975
z"/>
<path fill="#B4946C" opacity="1.000000" stroke="none"
	d="
M1025.506226,2071.701172
	C1025.486816,2071.271484 1026.133423,2070.551025 1027.481689,2069.586426
	C1027.512939,2070.031494 1026.842651,2070.720947 1025.506226,2071.701172
z"/>
<path fill="#B4946C" opacity="1.000000" stroke="none"
	d="
M1022.327393,2073.676270
	C1022.334717,2073.240234 1022.963135,2072.573975 1024.327881,2071.880859
	C1024.358887,2072.384766 1023.653687,2072.915527 1022.327393,2073.676270
z"/>
<path fill="#B4946C" opacity="1.000000" stroke="none"
	d="
M1015.992981,2077.640137
	C1015.946045,2077.250732 1016.426147,2076.679199 1017.489258,2076.005127
	C1017.554871,2076.420898 1017.037476,2076.939453 1015.992981,2077.640137
z"/>
</svg>
